<svg xmlns="http://www.w3.org/2000/svg" xmlns:xlink="http://www.w3.org/1999/xlink" width="1920" zoomAndPan="magnify" viewBox="0 0 1440 809.999993" height="1080" preserveAspectRatio="xMidYMid meet" version="1.0"><defs><g/><clipPath id="b5f28d5ad6"><path d="M 99 337 L 441.285156 337 L 441.285156 514.871094 L 99 514.871094 Z M 99 337 " clip-rule="nonzero"/></clipPath><clipPath id="ed28845ad4"><path d="M 178 295.121094 L 192 295.121094 L 192 320 L 178 320 Z M 178 295.121094 " clip-rule="nonzero"/></clipPath><clipPath id="5fb576920f"><path d="M 93.285156 380 L 118 380 L 118 393 L 93.285156 393 Z M 93.285156 380 " clip-rule="nonzero"/></clipPath></defs><g clip-path="url(#b5f28d5ad6)"><path fill="#100f0d" d="M 428.847656 441.574219 C 428.824219 441.574219 428.800781 441.574219 428.800781 441.574219 C 428.707031 441.574219 428.015625 441.503906 427.941406 441.480469 C 425.441406 441.289062 423.246094 442.480469 422.078125 444.578125 C 420.960938 446.535156 418.980469 447.726562 416.789062 447.726562 C 414.429688 447.726562 412.925781 446.390625 412.234375 445.605469 C 410.28125 443.386719 407.039062 442.863281 404.511719 444.363281 C 400.746094 446.605469 396.667969 447.726562 392.378906 447.726562 L 323.421875 447.726562 C 317.53125 428.199219 297.964844 414.367188 276.273438 417.683594 C 267.691406 402.421875 251.484375 392.789062 233.722656 392.789062 C 210.746094 392.789062 191.460938 408.382812 186.289062 430.082031 C 177.566406 428.507812 168.601562 429.796875 160.691406 433.492188 C 161.667969 427.722656 166.671875 423.308594 172.703125 423.308594 C 173.300781 423.308594 173.847656 423.429688 174.515625 423.523438 C 176.753906 423.859375 178.949219 422.953125 180.285156 421.164062 C 181.640625 419.375 181.902344 417.015625 181 414.988281 C 179.542969 411.746094 178.804688 408.382812 178.804688 404.996094 C 178.804688 391.527344 189.746094 380.582031 203.214844 380.582031 C 206.644531 380.582031 210.054688 381.34375 213.34375 382.871094 C 215.511719 383.847656 218.085938 383.488281 219.898438 381.941406 C 228.097656 374.835938 239.636719 372.523438 250.171875 376.3125 C 251.933594 376.957031 253.914062 376.742188 255.511719 375.71875 C 257.109375 374.691406 258.132812 373 258.300781 371.113281 C 260.015625 352.160156 275.699219 337.851562 294.746094 337.851562 C 309.332031 337.851562 322.515625 346.507812 328.332031 359.90625 C 329.546875 362.699219 332.597656 364.175781 335.53125 363.367188 C 355.550781 357.929688 374.074219 373.332031 374.074219 392.789062 C 374.074219 393.410156 374.023438 394.03125 373.953125 395.03125 C 373.8125 397.152344 374.789062 399.203125 376.550781 400.445312 C 378.292969 401.660156 380.554688 401.875 382.535156 401.015625 C 385.707031 399.609375 389.019531 398.894531 392.378906 398.894531 C 402.558594 398.894531 411.757812 405.402344 415.238281 415.085938 C 415.835938 416.707031 417.074219 418.015625 418.695312 418.683594 C 420.292969 419.328125 422.101562 419.28125 423.675781 418.492188 C 432.066406 414.367188 441.195312 420.902344 441.195312 429.414062 C 441.195312 436.113281 435.761719 441.574219 428.847656 441.574219 Z M 357.671875 485.832031 C 359.269531 486.472656 361.082031 486.402344 362.65625 485.640625 C 371.070312 481.515625 380.175781 488.046875 380.175781 496.558594 C 380.175781 503.261719 374.742188 508.722656 367.828125 508.722656 C 367.804688 508.722656 367.78125 508.722656 367.78125 508.722656 C 367.683594 508.722656 366.992188 508.648438 366.921875 508.625 C 364.46875 508.433594 362.226562 509.628906 361.058594 511.726562 C 359.9375 513.679688 357.960938 514.871094 355.765625 514.871094 L 111.683594 514.871094 C 104.960938 514.871094 99.476562 509.386719 99.476562 502.664062 C 99.476562 495.941406 104.960938 490.457031 111.683594 490.457031 C 112.277344 490.457031 112.828125 490.574219 113.492188 490.671875 C 115.734375 491.003906 117.925781 490.097656 119.261719 488.308594 C 120.621094 486.523438 120.882812 484.160156 119.976562 482.132812 C 118.523438 478.890625 117.785156 475.53125 117.785156 472.144531 C 117.785156 458.671875 128.726562 447.726562 142.191406 447.726562 C 145.625 447.726562 149.035156 448.488281 152.324219 450.015625 C 154.492188 451.015625 157.042969 450.636719 158.878906 449.085938 C 167.078125 441.980469 178.636719 439.667969 189.148438 443.457031 C 190.914062 444.101562 192.894531 443.886719 194.488281 442.863281 C 196.085938 441.835938 197.113281 440.144531 197.277344 438.261719 C 198.996094 419.304688 214.679688 404.996094 233.722656 404.996094 C 248.3125 404.996094 261.492188 413.652344 267.308594 427.054688 C 268.527344 429.84375 271.578125 431.320312 274.507812 430.511719 C 294.554688 425.074219 313.050781 440.476562 313.050781 459.933594 C 313.050781 460.554688 313.003906 461.175781 312.933594 462.175781 C 312.789062 464.300781 313.765625 466.347656 315.53125 467.589844 C 317.269531 468.804688 319.535156 469.019531 321.515625 468.160156 C 324.683594 466.753906 327.996094 466.039062 331.359375 466.039062 C 341.535156 466.039062 350.738281 472.550781 354.21875 482.230469 C 354.8125 483.851562 356.050781 485.164062 357.671875 485.832031 Z M 142.191406 386.683594 C 142.191406 363.128906 161.355469 343.957031 184.90625 343.957031 C 200.6875 343.957031 214.796875 352.515625 222.257812 366.082031 C 219.683594 367.253906 217.207031 368.660156 214.894531 370.351562 C 211.078125 369.039062 207.171875 368.371094 203.214844 368.371094 C 183.023438 368.371094 166.601562 384.800781 166.601562 404.996094 C 166.601562 407.261719 166.816406 409.503906 167.246094 411.722656 C 162.882812 412.722656 158.996094 414.941406 155.875 417.921875 C 147.316406 409.910156 142.191406 398.65625 142.191406 386.683594 " fill-opacity="1" fill-rule="nonzero"/></g><g clip-path="url(#ed28845ad4)"><path fill="#100f0d" d="M 191.007812 295.121094 L 178.804688 295.121094 L 178.804688 319.539062 L 191.007812 319.539062 L 191.007812 295.121094 " fill-opacity="1" fill-rule="nonzero"/></g><path fill="#100f0d" d="M 253.9375 326.261719 L 245.308594 317.632812 L 228.050781 334.894531 L 236.679688 343.527344 L 253.9375 326.261719 " fill-opacity="1" fill-rule="nonzero"/><g clip-path="url(#5fb576920f)"><path fill="#100f0d" d="M 117.785156 380.582031 L 93.375 380.582031 L 93.375 392.789062 L 117.785156 392.789062 L 117.785156 380.582031 " fill-opacity="1" fill-rule="nonzero"/></g><path fill="#100f0d" d="M 141.761719 334.894531 L 124.507812 317.632812 L 115.878906 326.261719 L 133.136719 343.527344 L 141.761719 334.894531 " fill-opacity="1" fill-rule="nonzero"/><g fill="#000000" fill-opacity="1"><g transform="translate(454.880204, 468.749996)"><g><path d="M 7.90625 -64.125 C 7.90625 -76.613281 10.71875 -87.847656 16.34375 -97.828125 C 21.976562 -107.816406 29.664062 -115.628906 39.40625 -121.265625 C 49.144531 -126.898438 59.957031 -129.71875 71.84375 -129.71875 C 85.800781 -129.71875 97.984375 -126.347656 108.390625 -119.609375 C 118.804688 -112.867188 126.40625 -103.316406 131.1875 -90.953125 L 111.15625 -90.953125 C 107.601562 -98.671875 102.488281 -104.609375 95.8125 -108.765625 C 89.132812 -112.929688 81.144531 -115.015625 71.84375 -115.015625 C 62.894531 -115.015625 54.867188 -112.929688 47.765625 -108.765625 C 40.660156 -104.609375 35.085938 -98.703125 31.046875 -91.046875 C 27.003906 -83.390625 24.984375 -74.414062 24.984375 -64.125 C 24.984375 -53.957031 27.003906 -45.046875 31.046875 -37.390625 C 35.085938 -29.734375 40.660156 -23.820312 47.765625 -19.65625 C 54.867188 -15.488281 62.894531 -13.40625 71.84375 -13.40625 C 81.144531 -13.40625 89.132812 -15.457031 95.8125 -19.5625 C 102.488281 -23.664062 107.601562 -29.578125 111.15625 -37.296875 L 131.1875 -37.296875 C 126.40625 -25.046875 118.804688 -15.582031 108.390625 -8.90625 C 97.984375 -2.226562 85.800781 1.109375 71.84375 1.109375 C 59.957031 1.109375 49.144531 -1.675781 39.40625 -7.25 C 29.664062 -12.832031 21.976562 -20.582031 16.34375 -30.5 C 10.71875 -40.414062 7.90625 -51.625 7.90625 -64.125 Z M 7.90625 -64.125 "/></g></g></g><g fill="#000000" fill-opacity="1"><g transform="translate(596.717047, 468.749996)"><g><path d="M 30.875 -135.96875 L 30.875 0 L 14.140625 0 L 14.140625 -135.96875 Z M 30.875 -135.96875 "/></g></g></g><g fill="#000000" fill-opacity="1"><g transform="translate(641.913757, 468.749996)"><g><path d="M 22.78125 -117.03125 C 19.59375 -117.03125 16.894531 -118.132812 14.6875 -120.34375 C 12.488281 -122.550781 11.390625 -125.25 11.390625 -128.4375 C 11.390625 -131.613281 12.488281 -134.304688 14.6875 -136.515625 C 16.894531 -138.722656 19.59375 -139.828125 22.78125 -139.828125 C 25.84375 -139.828125 28.445312 -138.722656 30.59375 -136.515625 C 32.738281 -134.304688 33.8125 -131.613281 33.8125 -128.4375 C 33.8125 -125.25 32.738281 -122.550781 30.59375 -120.34375 C 28.445312 -118.132812 25.84375 -117.03125 22.78125 -117.03125 Z M 30.875 -100.6875 L 30.875 0 L 14.140625 0 L 14.140625 -100.6875 Z M 30.875 -100.6875 "/></g></g></g><g fill="#000000" fill-opacity="1"><g transform="translate(687.110479, 468.749996)"><g><path d="M 135.234375 -102.53125 C 143.066406 -102.53125 150.046875 -100.90625 156.171875 -97.65625 C 162.296875 -94.40625 167.132812 -89.535156 170.6875 -83.046875 C 174.238281 -76.554688 176.015625 -68.65625 176.015625 -59.34375 L 176.015625 0 L 159.484375 0 L 159.484375 -56.953125 C 159.484375 -67.003906 157 -74.691406 152.03125 -80.015625 C 147.070312 -85.347656 140.367188 -88.015625 131.921875 -88.015625 C 123.222656 -88.015625 116.300781 -85.222656 111.15625 -79.640625 C 106.007812 -74.066406 103.4375 -66.015625 103.4375 -55.484375 L 103.4375 0 L 86.90625 0 L 86.90625 -56.953125 C 86.90625 -67.003906 84.425781 -74.691406 79.46875 -80.015625 C 74.507812 -85.347656 67.800781 -88.015625 59.34375 -88.015625 C 50.644531 -88.015625 43.722656 -85.222656 38.578125 -79.640625 C 33.441406 -74.066406 30.875 -66.015625 30.875 -55.484375 L 30.875 0 L 14.140625 0 L 14.140625 -100.6875 L 30.875 -100.6875 L 30.875 -86.171875 C 34.175781 -91.441406 38.613281 -95.484375 44.1875 -98.296875 C 49.757812 -101.117188 55.914062 -102.53125 62.65625 -102.53125 C 71.101562 -102.53125 78.570312 -100.628906 85.0625 -96.828125 C 91.5625 -93.023438 96.398438 -87.453125 99.578125 -80.109375 C 102.398438 -87.210938 107.054688 -92.722656 113.546875 -96.640625 C 120.035156 -100.566406 127.265625 -102.53125 135.234375 -102.53125 Z M 135.234375 -102.53125 "/></g></g></g><g fill="#000000" fill-opacity="1"><g transform="translate(876.348782, 468.749996)"><g><path d="M 7.90625 -50.703125 C 7.90625 -60.992188 9.984375 -70.03125 14.140625 -77.8125 C 18.304688 -85.59375 24.035156 -91.625 31.328125 -95.90625 C 38.617188 -100.195312 46.734375 -102.34375 55.671875 -102.34375 C 64.492188 -102.34375 72.148438 -100.441406 78.640625 -96.640625 C 85.128906 -92.847656 89.96875 -88.070312 93.15625 -82.3125 L 93.15625 -100.6875 L 110.0625 -100.6875 L 110.0625 0 L 93.15625 0 L 93.15625 -18.734375 C 89.84375 -12.859375 84.910156 -7.988281 78.359375 -4.125 C 71.804688 -0.269531 64.179688 1.65625 55.484375 1.65625 C 46.546875 1.65625 38.460938 -0.546875 31.234375 -4.953125 C 24.003906 -9.367188 18.304688 -15.554688 14.140625 -23.515625 C 9.984375 -31.472656 7.90625 -40.535156 7.90625 -50.703125 Z M 93.15625 -50.53125 C 93.15625 -58.125 91.625 -64.738281 88.5625 -70.375 C 85.5 -76.007812 81.363281 -80.328125 76.15625 -83.328125 C 70.945312 -86.328125 65.222656 -87.828125 58.984375 -87.828125 C 52.734375 -87.828125 47.035156 -86.351562 41.890625 -83.40625 C 36.742188 -80.46875 32.640625 -76.179688 29.578125 -70.546875 C 26.515625 -64.921875 24.984375 -58.304688 24.984375 -50.703125 C 24.984375 -42.992188 26.515625 -36.289062 29.578125 -30.59375 C 32.640625 -24.894531 36.742188 -20.546875 41.890625 -17.546875 C 47.035156 -14.546875 52.734375 -13.046875 58.984375 -13.046875 C 65.222656 -13.046875 70.945312 -14.546875 76.15625 -17.546875 C 81.363281 -20.546875 85.5 -24.894531 88.5625 -30.59375 C 91.625 -36.289062 93.15625 -42.9375 93.15625 -50.53125 Z M 80.109375 -129.171875 L 40.96875 -108.21875 L 40.96875 -120.71875 L 80.109375 -143.6875 Z M 80.109375 -129.171875 "/></g></g></g><g fill="#000000" fill-opacity="1"><g transform="translate(1000.547888, 468.749996)"><g><path d="M 34.546875 -86.90625 L 34.546875 -27.5625 C 34.546875 -22.65625 35.582031 -19.191406 37.65625 -17.171875 C 39.738281 -15.148438 43.351562 -14.140625 48.5 -14.140625 L 60.8125 -14.140625 L 60.8125 0 L 45.75 0 C 36.4375 0 29.453125 -2.140625 24.796875 -6.421875 C 20.148438 -10.710938 17.828125 -17.757812 17.828125 -27.5625 L 17.828125 -86.90625 L 4.78125 -86.90625 L 4.78125 -100.6875 L 17.828125 -100.6875 L 17.828125 -126.046875 L 34.546875 -126.046875 L 34.546875 -100.6875 L 60.8125 -100.6875 L 60.8125 -86.90625 Z M 34.546875 -86.90625 "/></g></g></g><g fill="#000000" fill-opacity="1"><g transform="translate(1067.424319, 468.749996)"><g><path d="M 22.78125 -117.03125 C 19.59375 -117.03125 16.894531 -118.132812 14.6875 -120.34375 C 12.488281 -122.550781 11.390625 -125.25 11.390625 -128.4375 C 11.390625 -131.613281 12.488281 -134.304688 14.6875 -136.515625 C 16.894531 -138.722656 19.59375 -139.828125 22.78125 -139.828125 C 25.84375 -139.828125 28.445312 -138.722656 30.59375 -136.515625 C 32.738281 -134.304688 33.8125 -131.613281 33.8125 -128.4375 C 33.8125 -125.25 32.738281 -122.550781 30.59375 -120.34375 C 28.445312 -118.132812 25.84375 -117.03125 22.78125 -117.03125 Z M 30.875 -100.6875 L 30.875 0 L 14.140625 0 L 14.140625 -100.6875 Z M 30.875 -100.6875 "/></g></g></g><g fill="#000000" fill-opacity="1"><g transform="translate(1112.621017, 468.749996)"><g><path d="M 7.90625 -50.53125 C 7.90625 -60.9375 9.984375 -70.03125 14.140625 -77.8125 C 18.304688 -85.59375 24.09375 -91.625 31.5 -95.90625 C 38.914062 -100.195312 47.398438 -102.34375 56.953125 -102.34375 C 69.328125 -102.34375 79.523438 -99.335938 87.546875 -93.328125 C 95.566406 -87.328125 100.863281 -79 103.4375 -68.34375 L 85.4375 -68.34375 C 83.71875 -74.46875 80.378906 -79.304688 75.421875 -82.859375 C 70.460938 -86.410156 64.304688 -88.1875 56.953125 -88.1875 C 47.398438 -88.1875 39.679688 -84.910156 33.796875 -78.359375 C 27.921875 -71.804688 24.984375 -62.53125 24.984375 -50.53125 C 24.984375 -38.40625 27.921875 -29.035156 33.796875 -22.421875 C 39.679688 -15.804688 47.398438 -12.5 56.953125 -12.5 C 64.304688 -12.5 70.429688 -14.210938 75.328125 -17.640625 C 80.234375 -21.066406 83.601562 -25.96875 85.4375 -32.34375 L 103.4375 -32.34375 C 100.75 -22.050781 95.359375 -13.8125 87.265625 -7.625 C 79.179688 -1.4375 69.078125 1.65625 56.953125 1.65625 C 47.398438 1.65625 38.914062 -0.484375 31.5 -4.765625 C 24.09375 -9.054688 18.304688 -15.117188 14.140625 -22.953125 C 9.984375 -30.796875 7.90625 -39.988281 7.90625 -50.53125 Z M 7.90625 -50.53125 "/></g></g></g><g fill="#000000" fill-opacity="1"><g transform="translate(1224.142954, 468.749996)"><g><path d="M 58.0625 1.65625 C 48.625 1.65625 40.078125 -0.484375 32.421875 -4.765625 C 24.773438 -9.054688 18.773438 -15.148438 14.421875 -23.046875 C 10.078125 -30.953125 7.90625 -40.113281 7.90625 -50.53125 C 7.90625 -60.8125 10.140625 -69.898438 14.609375 -77.796875 C 19.078125 -85.703125 25.171875 -91.769531 32.890625 -96 C 40.609375 -100.226562 49.242188 -102.34375 58.796875 -102.34375 C 68.347656 -102.34375 76.984375 -100.226562 84.703125 -96 C 92.421875 -91.769531 98.515625 -85.734375 102.984375 -77.890625 C 107.453125 -70.054688 109.6875 -60.9375 109.6875 -50.53125 C 109.6875 -40.113281 107.390625 -30.953125 102.796875 -23.046875 C 98.203125 -15.148438 91.984375 -9.054688 84.140625 -4.765625 C 76.304688 -0.484375 67.613281 1.65625 58.0625 1.65625 Z M 58.0625 -13.046875 C 64.0625 -13.046875 69.691406 -14.453125 74.953125 -17.265625 C 80.222656 -20.085938 84.484375 -24.316406 87.734375 -29.953125 C 90.984375 -35.585938 92.609375 -42.445312 92.609375 -50.53125 C 92.609375 -58.613281 91.015625 -65.472656 87.828125 -71.109375 C 84.640625 -76.742188 80.472656 -80.9375 75.328125 -83.6875 C 70.179688 -86.445312 64.609375 -87.828125 58.609375 -87.828125 C 52.484375 -87.828125 46.878906 -86.445312 41.796875 -83.6875 C 36.710938 -80.9375 32.640625 -76.742188 29.578125 -71.109375 C 26.515625 -65.472656 24.984375 -58.613281 24.984375 -50.53125 C 24.984375 -42.320312 26.484375 -35.398438 29.484375 -29.765625 C 32.484375 -24.128906 36.492188 -19.929688 41.515625 -17.171875 C 46.546875 -14.421875 52.0625 -13.046875 58.0625 -13.046875 Z M 58.0625 -13.046875 "/></g></g></g></svg>